 http://desibbrg.org/images/66952052392581364616.gif 
http://desibbrg.org/images/08632953307803923570.jpg 
http://desibbrg.org/images/95694094606600999716.png 
http://desibbrg.org/images/83330286292235527475.png 
http://desibbrg.org/images/67774933072929949712.png 
http://desibbrg.org/images/73595506769940033862.png

Info - 
DIRECTED BY:ABRAR KHAN
PRODUCED BY:ADNAN SAJID KHAN
WRITTEN BY: SALMAN HAIDER:
MUSIC:KHALID HAMEED:
Gullu dada 3 is the sequel of gullu dada returns hyderabadi comey movie.its trailer has been launched and release date has not been updated.the movie casting is same as the previous gullu dada returns had but with little amendmend.some new faces are seen in the movie.

Media Info - 
Video
ID : 1
Format : AVC
Format/Info : Advanced Video Codec
Format profile : Main@L1.3
Format settings, CABAC : Yes
Format settings, ReFrames : 4 frames
Codec ID : avc1
Codec ID/Info : Advanced Video Coding
Duration : 1h 44mn
Bit rate mode : Variable
Bit rate : 274 Kbps
Width : 352 pixels
Height : 152 pixels
Display aspect ratio : 2.35:1
Frame rate mode : Variable
Frame rate : 29.970 fps
Minimum frame rate : 29.412 fps
Maximum frame rate : 30.303 fps
Color space : YUV
Chroma subsampling : 4:2:0
Bit depth : 8 bits
Scan type : Progressive
Bits/(Pixel*Frame) : 0.171
Stream size : 205 MiB (62%)
Writing library : x264 core 120

Audio
ID : 2
Format : AAC
Format/Info : Advanced Audio Codec
Format profile : LC
Codec ID : 40
Duration : 1h 44mn
Bit rate mode : Variable
Bit rate : 160 Kbps
Maximum bit rate : 313 Kbps
Channel(s) : 2 channels
Channel positions : Front: L R
Sampling rate : 44.1 KHz
Compression mode : Lossy
Stream size : 120 MiB (36%)
Material_Duration : 6281648
Material_StreamSize : 125625073

Ripper : lottery

Seeding 24x7... Extreme Seeding...


Enjoy!
